<svg xmlns="http://www.w3.org/2000/svg" viewBox="0 0 81.95 53.62"><defs><style>.cls-1{opacity:0.35;}.cls-2{fill:#bc6991;}.cls-3{font-size:48px;font-family:BestDeals-Regular, Best Deals;}.cls-4{letter-spacing:-0.05em;}</style></defs><title>logo</title><g id="Layer_11" data-name="Layer 11"><g class="cls-1"><path class="cls-2" d="M205.34,202.15c-.62-3.21-4-5.71-7.08-4.81a5.91,5.91,0,0,0-3.67,2.86,6.72,6.72,0,0,0-.56,4.7,5.87,5.87,0,0,0,2.58,3.83,7,7,0,0,0,4.51,1,5,5,0,0,0,3.46-2.88A7.21,7.21,0,0,0,205.34,202.15Zm0,0a8.33,8.33,0,0,1-.51,4.85,6.51,6.51,0,0,1-1.4,2.09,4.1,4.1,0,0,1-2.28,1.16,7.14,7.14,0,0,1-4.85-1.11,6.13,6.13,0,0,1-2.59-4.17,7.76,7.76,0,0,1,.67-4.84,6.41,6.41,0,0,1,3.72-3.18,5.11,5.11,0,0,1,4.77,1A7.43,7.43,0,0,1,205.39,202.14Z" transform="translate(-142.88 -172.21)"/></g><g class="cls-1"><path class="cls-2" d="M224.62,202.15c-.62-3.21-4-5.71-7.08-4.81a5.91,5.91,0,0,0-3.67,2.86,6.72,6.72,0,0,0-.56,4.7,5.89,5.89,0,0,0,2.57,3.83,7.08,7.08,0,0,0,4.52,1,5,5,0,0,0,3.46-2.88A7.21,7.21,0,0,0,224.62,202.15Zm0,0a8.33,8.33,0,0,1-.51,4.85,6.51,6.51,0,0,1-1.4,2.09,4.1,4.1,0,0,1-2.28,1.16,7.14,7.14,0,0,1-4.85-1.11A6.13,6.13,0,0,1,213,205a7.76,7.76,0,0,1,.67-4.84,6.42,6.42,0,0,1,3.71-3.18,5.13,5.13,0,0,1,4.78,1A7.43,7.43,0,0,1,224.67,202.14Z" transform="translate(-142.88 -172.21)"/></g><g class="cls-1"><path class="cls-2" d="M205.48,203.71c-1,.09-1.94.14-2.91.2s-1.94.08-2.91.07h-.36l.16-.31c.41-.82.88-1.6,1.32-2.4s.87-1.6,1.27-2.42.76-1.65,1.1-2.49a20.16,20.16,0,0,1,1.14-2.51l.24-.42.19.45c.31.7.65,1.38,1,2.07s.73,1.34,1.11,2l.57,1a7.21,7.21,0,0,1,.42,1.09,9.3,9.3,0,0,0,.42,1.08l.44,1.06,0,0a21.17,21.17,0,0,1-1.1-2,8.86,8.86,0,0,0-.49-1l-.6-1c-.44-.65-.81-1.33-1.18-2s-.68-1.4-1-2.12l.44,0c-.46.76-.85,1.58-1.25,2.4s-.83,1.63-1.26,2.43-.83,1.62-1.21,2.45-.73,1.67-1.14,2.48l-.2-.31c1,0,1.94,0,2.92,0s1.94,0,2.91.12Z" transform="translate(-142.88 -172.21)"/></g><g class="cls-1"><path class="cls-2" d="M204.84,194.8c-.38-.09-.48-.49-.54-.68a2.37,2.37,0,0,0-.05-.44,1.25,1.25,0,0,0-.21-.37,2.53,2.53,0,0,1-.67-1.51l0,0a1.69,1.69,0,0,1,.88,1.44.93.93,0,0,0,.11.41c.08.12.17.19.28.33.18.3.11.53.18.81Z" transform="translate(-142.88 -172.21)"/></g><g class="cls-1"><path class="cls-2" d="M200.14,191.88a1,1,0,0,1,.73-.4,2.92,2.92,0,0,1,.78,0c.26,0,.51.1.77.12a3.41,3.41,0,0,0,.78-.05,5.43,5.43,0,0,1,3.08.31v0a8.66,8.66,0,0,1-3.09-.08,3.3,3.3,0,0,0-.77-.07c-.26,0-.51.1-.77.13-.53.08-1-.12-1.48,0Z" transform="translate(-142.88 -172.21)"/></g><g class="cls-1"><path class="cls-2" d="M205.52,203.63a15.11,15.11,0,0,1,2.41-.17l-.22.23a1.64,1.64,0,0,1,1.66-1.75,1.37,1.37,0,0,1,1.1.66,2.25,2.25,0,0,1,.38,1.26,3.21,3.21,0,0,1-.07.68,1.78,1.78,0,0,1-.33.64,1.41,1.41,0,0,1-1.34.5,1.55,1.55,0,0,1-1.07-.88,2.7,2.7,0,0,1-.13-1.28H208a3.53,3.53,0,0,0,.39,1.12,1.17,1.17,0,0,0,.84.55,1.23,1.23,0,0,0,1.21-1.34,2.27,2.27,0,0,0-.16-1.12,1,1,0,0,0-.88-.64,1,1,0,0,0-.94.53,2,2,0,0,0-.26,1v.24h-.22a15.12,15.12,0,0,1-2.42-.22Z" transform="translate(-142.88 -172.21)"/></g><g class="cls-1"><path class="cls-2" d="M210,202.22c.28-.72.6-1.41.92-2.11s.66-1.38,1-2,.78-1.32,1.16-2A8.94,8.94,0,0,0,214,194l.07-.25.11.25,1.13,2.47c.36.78,1,1.46,1.45,2.29a33.35,33.35,0,0,1,2.24,5l0,0c-1-1.57-1.75-3.21-2.65-4.77-.23-.38-.46-.77-.71-1.14a6.62,6.62,0,0,1-.69-1.22c-.35-.87-.6-1.73-.91-2.59h.18a22,22,0,0,1-.92,2.11c-.32.7-.61,1.41-1,2.09s-.72,1.34-1.08,2-.77,1.32-1.2,2Z" transform="translate(-142.88 -172.21)"/></g><g class="cls-1"><path class="cls-2" d="M214.21,194.29c-.39-.56-.73-1.12-1.08-1.64a2.31,2.31,0,0,0-.28-.38.9.9,0,0,1-.21-.51c0-.17-.16-.28-.06-.56.13-.13.21-.25.33-.39a4.88,4.88,0,0,1,1.63-1.23,10.75,10.75,0,0,1,1.91-.65l0,0a35.59,35.59,0,0,1-3.37,2c-.13.1-.28.21-.39.31s0,.25.09.4a.47.47,0,0,0,.24.35,2.34,2.34,0,0,1,.42.32,3.43,3.43,0,0,1,.79,1.88Z" transform="translate(-142.88 -172.21)"/></g></g><g id="Layer_8" data-name="Layer 8"><text class="cls-3" transform="translate(0 42)">Ren<tspan class="cls-4" x="40.56" y="0">t</tspan><tspan x="43.29" y="0">y</tspan></text></g></svg>